# xmcd
#
# Track frame offsets:
#	150
#	14844
#	26253
#	45900
#	62160
#	73794
#	88777
#	104730
#	125110
#	142930
#
# Disc length: 2126 seconds
# Revision: 0
# Processed by: cddbd v1.5.2PL0 Copyright (c) Steve Scherf et al.
# Submitted via: dBpowerAMP V12.0
#
DISCID=8e084c0a
DTITLE=Erin Costello - Down Below the Status Quo
DYEAR=1900
DGENRE=
TTITLE0=Move
TTITLE1=Worry, Don't Weigh Me Down
TTITLE2=Low
TTITLE3=Fighter
TTITLE4=Turn it On
TTITLE5=Quiet the Bombs
TTITLE6=Everyday
TTITLE7=Wake Up
TTITLE8=Titanic
TTITLE9=The Line
EXTD=
EXTT0=
EXTT1=
EXTT2=
EXTT3=
EXTT4=
EXTT5=
EXTT6=
EXTT7=
EXTT8=
EXTT9=
PLAYORDER=
